 <svg class="logo" xmlns="http://www.w3.org/2000/svg" viewBox="0 0 667.14 680.31">
  <defs>
    <style>
      .cls-1 {
        fill: #06171e;
        isolation: isolate;
      }
    </style>
  </defs>
  <g>
    <path class="cls-1" d="M483.1,396.36h0v0h0a0,0,0,0,0,0,0h0Z"/>
    <path class="cls-1" d="M667.14,346.74,387.05,66.65l88.38-18.78L341.28,19.36V15.19a8.46,8.46,0,1,0-10.21,0v.48L0,346.74,333.57,680.31,417.89,596l13.5-13.5.71.16,5.55-6.42,16-16ZM405.33,172.67c4.14,0,7.5,3.9,7.5,8.73s-3.36,8.72-7.5,8.72h-.14l.72,98.06h0c-1-.23-1.89-.45-2.85-.66s-2.18-.5-3.27-.74l-1.93-.41c-.88-.19-1.77-.37-2.66-.54-1.29-.27-2.59-.51-3.9-.76h0l-3.11-.57c-2.55-.45-5.14-.88-7.77-1.26-1.63-.26-3.28-.49-4.93-.71h0q-5.57-.76-11.3-1.34c-7.79-.79-15.44-1.3-22.89-1.55h0v-55.1c0-15.14,11.2-27.45,25-27.45A23.8,23.8,0,0,1,383,204.15l.46-14h-.3c2.69,0,4.87-3.91,4.87-8.72s-2.18-8.73-4.87-8.73h.06c0-32.22-20.75-58.42-46.5-59h.92c.56,0,1.11,0,1.67.05l.54,0h.39c35.89,2,64.28,27.62,64.28,58.94h.79Zm-22.2,180.74q5.22,1.21,10,2.56a169.85,169.85,0,0,1,23.4,8.17h0l36,165.53h0c-16.33-4.52-33-8.47-49.93-12.12h0ZM273.25,560.89c17.51,4,35.28,7.25,53.21,10.42h0l-.31,31.41-.42,43.93-.11-.11-56-56ZM25.82,346.73,331.07,41.46v41h0v31.22c1.79-.1,3.61-.14,5.44-.14,1,0,2.05,0,3.07,0,.57,0,1.13,0,1.7.06V76.45L346,75.38l19.77-4.2L641.32,346.74,469.1,519,447.34,424.7l-.19-.82-1.66-7.17c22.47-4.19,37.6-14.69,37.62-23.88v0h0V337.61c0-17-25-34.24-62.47-45.48h0V267.41h-6.11V214.14c0-.8,0-1.57.09-2.32,0-.37.05-.75.1-1.1s.06-.57.11-.84.1-.65.15-1,.11-.56.17-.81.17-.74.27-1.07a5.79,5.79,0,0,1,.19-.63.64.64,0,0,1,0-.07,9.54,9.54,0,0,1,1-2.19,1.45,1.45,0,0,1,.17-.26,1.5,1.5,0,0,1,.19-.25,2.22,2.22,0,0,1,1.68-1,2.53,2.53,0,0,1,2,1.37h0V190.13h7a8.59,8.59,0,0,0,3-.54h0c.26-.09.52-.2.77-.31a5.52,5.52,0,0,0,.75-.42,9.13,9.13,0,0,0,1-.71h0a8.22,8.22,0,0,0,.61-.57,8.57,8.57,0,0,0,2.56-6.15,8.73,8.73,0,0,0-8.73-8.74H421v0c0-.51,0-1,0-1.52a40.6,40.6,0,0,0-.94-7.47,41.64,41.64,0,0,0-1.19-4.34,48.25,48.25,0,0,0-2.27-5.6c-.22-.47-.44-.91-.69-1.36-.58-1.13-1.22-2.25-1.91-3.35s-1.42-2.18-2.19-3.23c-.63-.85-1.26-1.68-1.95-2.5s-1.39-1.66-2.11-2.44-1.49-1.6-2.28-2.36A72.63,72.63,0,0,0,391.86,128c-.19-.12-.39-.24-.6-.35-.05,0-.12-.07-.18-.12-.25-.15-.49-.3-.75-.44a100.82,100.82,0,0,0-31.57-11.45h0a115.73,115.73,0,0,0-17.45-1.94c-.57,0-1.13,0-1.7-.06-.95,0-1.89,0-2.84,0-1.91,0-3.8,0-5.67.14-2.8.13-5.54.35-8.25.67l-1.78.22c-.44,0-.88.12-1.32.19-.69.09-1.35.19-2,.3-1.18.19-2.34.4-3.48.62-35.6,6.91-61.72,29.75-61.73,56.9v0h4.31c0-12.6,5.63-24.28,15.24-33.87a73.48,73.48,0,0,1,15-11.45q2.13-1.25,4.38-2.4a91.58,91.58,0,0,1,9.43-4.19h0q1.78-.68,3.63-1.29a107.81,107.81,0,0,1,14.36-3.73c1.15-.22,2.31-.43,3.49-.62.67-.11,1.34-.21,2-.3.44-.07.89-.14,1.33-.19l1.77-.21c2.7-.3,4.56-.62,7.35-.74l.67,0h.91c-5.25,0-9.5,26.46-9.5,59H326c-1.54,0-2.79,3.93-2.79,8.73,0,4.65,1.18,8.45,2.66,8.7l.15,0h.64l2.18,131.62v.06l-1.75,180.74h0c-15.45-3-30.74-6-45.64-9.3h0l21-172.51.67-53.36H292.9V214.11c0-6,4.84-10.85,11-11.45l.15-12.54H304c-3.08,0-5.57-3.91-5.57-8.72s2.49-8.73,5.57-8.73h.32c0-31.73,13.61-57.63,30.69-59h-.08l-1.44.11-.47,0c-1.11.09-9.69,1.54-13,2.36l-1.62.43-1.62.46c-1.61.46-3.19,1-4.75,1.54-1,.35-1.93.71-2.87,1.09-.58.22-1.14.47-1.7.71-.94.4-1.87.83-2.77,1.27a4.14,4.14,0,0,0-.43.2l-1.19.59c-.48.25-1,.49-1.42.76s-.94.5-1.41.75a70.62,70.62,0,0,0-6.49,4.12l-1.26.92c-.41.29-.82.61-1.22.93-.81.63-1.61,1.28-2.38,1.94-.39.32-.78.67-1.14,1s-.75.68-1.12,1-.74.69-1.09,1.06c-.62.59-1.22,1.21-1.81,1.83a59.59,59.59,0,0,0-6.6,8.47c-.25.38-.49.76-.71,1.15a1.53,1.53,0,0,1-.14.21l-.69,1.19a52.74,52.74,0,0,0-4.6,10.72c-.39,1.3-.73,2.64-1,4a49.25,49.25,0,0,0-1.06,10.13h-1.54a4.62,4.62,0,0,0-1,.1,1.34,1.34,0,0,0-.27.07,4.71,4.71,0,0,0-1.36.56,4.5,4.5,0,0,0-.41.25,5.6,5.6,0,0,0-.82.67l-.35.34a7,7,0,0,0-.52.65c-.13.17-.25.35-.37.54a7.26,7.26,0,0,0-.38.67,6.76,6.76,0,0,0-.38.86,2.64,2.64,0,0,0-.17.47,10.28,10.28,0,0,0-.51,2.38c0,.15,0,.29-.05.45s0,.47,0,.72,0,.49,0,.72,0,.3.05.45A9.55,9.55,0,0,0,261,184c.06.26.13.51.21.76a.37.37,0,0,0,0,.11,4,4,0,0,0,.21.58c0,.1.07.18.11.28a9.38,9.38,0,0,0,.64,1.22,0,0,0,0,0,0,0,6,6,0,0,0,.41.58,7.18,7.18,0,0,0,1.69,1.62,3,3,0,0,0,.33.21l0,0a.05.05,0,0,0,0,0,4.78,4.78,0,0,0,.45.23l.11.05.33.12a5,5,0,0,0,1.68.29h-.27v13.75c3.79.59,6.74,5.49,6.74,11.44v53.26h-6.74v55.6l-18.91,105.3-9.34,52h0l-.22,1.23-4.43-1.24c-3.79-1.09-7.54-2.2-11.24-3.37-1.44-.44-2.86-.89-4.28-1.34l3.14-16.05,10.35-44.8,2.64-11.48,1.36-5.91L249.2,342,256.8,309V190.12h-8.29a8.74,8.74,0,0,1-4.89-1.49,7.8,7.8,0,0,1-1.29-1.07,8.65,8.65,0,0,1-2.56-6.15,8.75,8.75,0,0,1,8.73-8.74h-4.65a8.75,8.75,0,0,0-8.73,8.74,8.65,8.65,0,0,0,2.56,6.15,7.8,7.8,0,0,0,1.29,1.07,8.69,8.69,0,0,0,4.88,1.5h8.3V309L244.55,342l-13.06,56.59h0c-32.65,13.36-61.54,31.2-62,44.86v.09a1,1,0,0,0,0,.25v46.63L25.81,346.73Z"/>
  </g>
</svg>
