 <svg class="logo" xmlns="http://www.w3.org/2000/svg" viewBox="0 0 792.56 1017.98">
  <defs>
    <style>
      .cls-1, .cls-2 {
        fill: #06171e;
      }

      .cls-1 {
        isolation: isolate;
      }
    </style>
  </defs>
  <g>
    <g>
      <path class="cls-1" d="M544.82,396.36h0v0h0a0,0,0,0,0,0,0h0Z"/>
      <path class="cls-1" d="M728.85,346.74,448.77,66.65l88.37-18.78L403,19.36V15.19a8.46,8.46,0,1,0-10.21,0v.48L61.71,346.74,395.28,680.31,479.6,596l13.5-13.5.72.16,5.54-6.42,16-16ZM467.05,172.67c4.13,0,7.49,3.9,7.49,8.73s-3.36,8.72-7.49,8.72h-.15l.73,98.06h0c-.94-.23-1.89-.45-2.84-.66s-2.18-.5-3.28-.74l-1.93-.41c-.87-.19-1.76-.37-2.65-.54-1.29-.27-2.6-.51-3.91-.76h0l-3.1-.57c-2.56-.45-5.15-.88-7.78-1.26-1.63-.26-3.27-.49-4.93-.71h-.05q-5.56-.76-11.29-1.34c-7.8-.79-15.45-1.3-22.9-1.55h0v-55.1c0-15.14,11.2-27.45,25-27.45a23.8,23.8,0,0,1,16.77,7.09l.47-14h-.3c2.69,0,4.87-3.91,4.87-8.72s-2.18-8.73-4.87-8.73H445c0-32.22-20.74-58.42-46.49-59h.91c.56,0,1.11,0,1.67.05l.54,0h.4c35.88,2,64.27,27.62,64.27,58.94h.8ZM444.84,353.41c3.48.81,6.81,1.67,10,2.56a169.68,169.68,0,0,1,23.39,8.17h0l36,165.53h0c-16.34-4.52-33.06-8.47-49.94-12.12h0ZM335,560.89c17.52,4,35.28,7.25,53.21,10.42h0l-.3,31.41-.43,43.93-.11-.11-56-56ZM87.53,346.73,392.78,41.46v41h0v31.22c1.79-.1,3.62-.14,5.44-.14,1,0,2,0,3.07,0,.57,0,1.14,0,1.7.06V76.45l4.71-1.07,19.77-4.2L703,346.74,530.81,519,509.05,424.7l-.19-.82-1.65-7.17c22.47-4.19,37.59-14.69,37.61-23.88v0h0V337.61c0-17-25-34.24-62.46-45.48h0V267.41h-6.12V214.14c0-.8,0-1.57.09-2.32,0-.37.05-.75.1-1.1s.07-.57.11-.84.1-.65.15-1,.11-.56.17-.81.17-.74.27-1.07.12-.43.19-.63a.64.64,0,0,1,0-.07,9.54,9.54,0,0,1,1-2.19,1.45,1.45,0,0,1,.17-.26,1.5,1.5,0,0,1,.19-.25,2.22,2.22,0,0,1,1.69-1,2.54,2.54,0,0,1,2,1.37h0V190.13h7a8.58,8.58,0,0,0,3-.54h0c.27-.09.52-.2.77-.31a5.52,5.52,0,0,0,.75-.42,9.13,9.13,0,0,0,1-.71h0c.21-.18.41-.37.61-.57a8.6,8.6,0,0,0,2.55-6.15,8.73,8.73,0,0,0-8.72-8.74H482.7v0c0-.51,0-1,0-1.52a40.6,40.6,0,0,0-.94-7.47,41.64,41.64,0,0,0-1.19-4.34,46.55,46.55,0,0,0-2.27-5.6c-.22-.47-.44-.91-.68-1.36-.59-1.13-1.23-2.25-1.92-3.35s-1.42-2.18-2.19-3.23c-.63-.85-1.26-1.68-2-2.5s-1.38-1.66-2.11-2.44-1.49-1.6-2.28-2.36A72.88,72.88,0,0,0,453.58,128c-.2-.12-.4-.24-.61-.35-.05,0-.12-.07-.18-.12-.25-.15-.49-.3-.75-.44a100.82,100.82,0,0,0-31.57-11.45h0A115.59,115.59,0,0,0,403,113.69c-.56,0-1.13,0-1.7-.06-1,0-1.89,0-2.83,0-1.92,0-3.8,0-5.68.14q-4.18.19-8.25.67l-1.78.22c-.44,0-.88.12-1.32.19-.68.09-1.35.19-2,.3-1.18.19-2.34.4-3.48.62-35.6,6.91-61.71,29.75-61.73,56.9v0h4.31c0-12.6,5.64-24.28,15.24-33.87a73.48,73.48,0,0,1,15-11.45c1.43-.83,2.88-1.63,4.38-2.4a91.58,91.58,0,0,1,9.43-4.19h0c1.19-.45,2.41-.88,3.63-1.29a107.56,107.56,0,0,1,14.37-3.73c1.14-.22,2.31-.43,3.48-.62.67-.11,1.34-.21,2-.3.44-.07.89-.14,1.33-.19l1.77-.21c2.7-.3,4.56-.62,7.35-.74l.67,0h.91c-5.25,0-9.5,26.46-9.5,59h-.87c-1.53,0-2.79,3.93-2.79,8.73,0,4.65,1.19,8.45,2.66,8.7l.16,0h.63l2.18,131.62v.06l-1.75,180.74h0c-15.45-3-30.74-6-45.64-9.3h0l21-172.51.67-53.36H354.61V214.11c0-6,4.84-10.85,11-11.45l.16-12.54h-.11c-3.08,0-5.58-3.91-5.58-8.72s2.5-8.73,5.58-8.73H366c0-31.73,13.62-57.63,30.7-59h-.09l-1.43.11-.48,0c-1.11.09-9.69,1.54-13,2.36l-1.63.43-1.62.46c-1.61.46-3.19,1-4.75,1.54-1,.35-1.93.71-2.87,1.09-.58.22-1.14.47-1.7.71-.94.4-1.87.83-2.77,1.27-.14.06-.28.12-.43.2l-1.19.59c-.48.25-1,.49-1.42.76s-.94.5-1.4.75a68,68,0,0,0-6.49,4.12c-.43.3-.84.61-1.26.92s-.83.61-1.23.93c-.81.63-1.61,1.28-2.38,1.94-.38.32-.77.67-1.14,1s-.75.68-1.11,1-.75.69-1.1,1.06c-.62.59-1.22,1.21-1.81,1.83a60.32,60.32,0,0,0-6.6,8.47c-.24.38-.49.76-.71,1.15a1,1,0,0,1-.14.21c-.23.39-.46.8-.68,1.19a52.78,52.78,0,0,0-4.61,10.72c-.39,1.3-.73,2.64-1,4a49.25,49.25,0,0,0-1.06,10.13H329a4.62,4.62,0,0,0-1,.1,1.34,1.34,0,0,0-.27.07,4.83,4.83,0,0,0-1.36.56l-.41.25a5.6,5.6,0,0,0-.82.67l-.34.34a7.1,7.1,0,0,0-.53.65,5.07,5.07,0,0,0-.36.54,4.44,4.44,0,0,0-.38.67,5.62,5.62,0,0,0-.39.86,3.75,3.75,0,0,0-.17.47,10.82,10.82,0,0,0-.51,2.38c0,.15,0,.29,0,.45s0,.47,0,.72,0,.49,0,.72,0,.3,0,.45a9.55,9.55,0,0,0,.23,1.42,6.61,6.61,0,0,0,.22.76.3.3,0,0,0,0,.11,4,4,0,0,0,.21.58c0,.1.07.18.11.28a8.34,8.34,0,0,0,.65,1.22,0,0,0,0,0,0,0,4.6,4.6,0,0,0,.4.58,7.38,7.38,0,0,0,1.69,1.62,3,3,0,0,0,.33.21l.05,0s0,0,0,0a4.93,4.93,0,0,0,.46.23l.11.05.32.12a5.07,5.07,0,0,0,1.68.29h-.27v13.75c3.79.59,6.74,5.49,6.74,11.44v53.26h-6.74v55.6l-18.91,105.3-9.34,52h0l-.22,1.23-4.43-1.24c-3.79-1.09-7.54-2.2-11.24-3.37l-4.28-1.34,3.14-16.05,10.35-44.8,2.64-11.48,1.36-5.91L310.92,342,318.51,309V190.12h-8.29a8.74,8.74,0,0,1-4.89-1.49,8.24,8.24,0,0,1-1.29-1.07,8.64,8.64,0,0,1-2.55-6.15,8.74,8.74,0,0,1,8.72-8.74h-4.65a8.74,8.74,0,0,0-8.72,8.74,8.64,8.64,0,0,0,2.55,6.15,8.24,8.24,0,0,0,1.29,1.07,8.69,8.69,0,0,0,4.88,1.5h8.3V309L306.27,342,293.2,398.55h0c-32.65,13.36-61.53,31.2-62,44.86v.09a2,2,0,0,0,0,.25v46.63L87.52,346.73Z"/>
    </g>
    <g>
      <path class="cls-2" d="M0,885.53V730.37H68.08a78.5,78.5,0,0,1,16.29,1.77,37.11,37.11,0,0,1,15.35,7.31q7,5.53,11.27,16.71t4.28,29.76q0,18.8-4.17,30.17t-10.86,17.13a35.44,35.44,0,0,1-14.52,7.72,62,62,0,0,1-15.34,2q-4,0-8.25-.42c-2.86-.28-5.64-.66-8.36-1.15s-5.22-1-7.51-1.46S42,839,40.51,838.75v46.78Zm40.51-78.94H63.9a9.08,9.08,0,0,0,6.58-2.3,12.76,12.76,0,0,0,3.34-6.78,55.59,55.59,0,0,0,.94-11.18,43.33,43.33,0,0,0-1.15-10.85,13.62,13.62,0,0,0-3.44-6.58,8.75,8.75,0,0,0-6.27-2.2H40.51Z"/>
      <path class="cls-2" d="M172.49,885.53q-14,0-23-4.18a26.34,26.34,0,0,1-13.16-13.15q-4.17-9-4.17-23V730.37H172.7v108a14.4,14.4,0,0,0,1.15,6.06A7.14,7.14,0,0,0,177.5,848a14.4,14.4,0,0,0,6.06,1.15h45.11v36.34Z"/>
      <path class="cls-2" d="M302,886.57a133.79,133.79,0,0,1-24.12-2.09,55.23,55.23,0,0,1-20.15-7.72A37.75,37.75,0,0,1,244,860.89q-4.9-10.23-4.9-26.52v-104h40.51V834.16a14.77,14.77,0,0,0,2.61,9,15.6,15.6,0,0,0,7.62,5.32,42.12,42.12,0,0,0,24.23,0,15.65,15.65,0,0,0,7.62-5.32,14.77,14.77,0,0,0,2.61-9V730.37h40.51v104q0,16.27-4.91,26.52a37.8,37.8,0,0,1-13.67,15.87,55.22,55.22,0,0,1-20.05,7.72A133.34,133.34,0,0,1,302,886.57Z"/>
      <path class="cls-2" d="M428.3,886.57q-14.4,0-23.49-6.16a40.59,40.59,0,0,1-14.1-16.91,87.58,87.58,0,0,1-7-25,217.81,217.81,0,0,1-2-30.28,202.13,202.13,0,0,1,2.4-32.58q2.4-14.61,8.78-25.06a41.63,41.63,0,0,1,18.27-16.08q11.9-5.62,30.9-5.63a204.09,204.09,0,0,1,21.2.94,139.35,139.35,0,0,1,16.6,2.71q7.72,1.79,16.08,4.07v31.54q-4.59-.84-11.69-1.47t-15.87-1q-8.77-.42-18.59-.42-12.12,0-18,3.66T424.13,782q-1.89,9.39-1.88,26.31a168.78,168.78,0,0,0,1,21c.7,5.36,1.84,9.5,3.45,12.42a13.14,13.14,0,0,0,6.16,6.06,21.85,21.85,0,0,0,9,1.67,115.64,115.64,0,0,0,13.78-.73c4-.49,7.1-.94,9.19-1.36v-20H443.34V795.11q4.59-.63,11-1.05t13.16-.73q6.78-.32,12.42-.31,7.51,0,13.26.1c3.83.07,7.34.18,10.55.31v92.1H473.2l-5.43-10.23q-5,3.33-15.66,7.3A67.69,67.69,0,0,1,428.3,886.57Z"/>
      <path class="cls-2" d="M519.35,824.35V792.19h65.57v32.16Z"/>
      <path class="cls-2" d="M600.58,885.53V730.37h40.51V885.53Z"/>
      <path class="cls-2" d="M664.06,885.53V730.37h32.16l54.51,86.45V730.37h40.51V885.53H759.08l-54.51-86.46v86.46Z"/>
      <path class="cls-2" d="M2.09,910.33H9.93c6.86,0,16.3-1.12,25.19-1.12,34.22,0,50.53,19,50.53,51.37,0,36.32-20,58-52.21,57.38-7.07-.14-17.77-1.12-25.4-1.12H2.09Zm33.8,96.09c19.53-.42,33.52-12.95,33.52-43.53,0-31.49-12.87-42.41-37.93-42.41a73.35,73.35,0,0,0-13.71,1.12v83.49C22.46,1006.14,29.87,1006.49,35.89,1006.42Z"/>
      <path class="cls-2" d="M106,910.33h15.81v106.51H106Z"/>
      <path class="cls-2" d="M149.88,910.33h6.79c6.93,0,16.87-1.12,27.15-1.12,21.7,0,36.26,8.68,36.26,29.95,0,15.68-7.28,25.34-19.25,29.54,9.87,6.85,15.54,27.43,22.6,40.3,1.4,2.66,2.8,5.25,4.27,7.84H210c-1.26-1.82-1.75-3.36-3.85-7.84-5.74-12.45-10.92-34.08-22.12-37.65-4.12.14-9.72.14-18.54.14v45.35H149.88Zm32.06,50.53c13.78,0,22.18-6.16,22.18-20.93,0-13.22-6.23-19.24-22.6-19.24a85.11,85.11,0,0,0-16,1.26v38.49C168.57,960.79,178.16,960.86,181.94,960.86Z"/>
      <path class="cls-2" d="M245.54,910.33h61.31v12h-45.7V956h33.52v12H261.15v36.6H312v12.24H245.54Z"/>
      <path class="cls-2" d="M373,909.21a90.21,90.21,0,0,1,27.93,4l-2.24,13.86c-2-1-8.61-5.18-24.64-5.18-21.62,0-34.85,16-34.85,41.22,0,24.91,13.09,42.55,34.79,42.55,10.91,0,22.46-3.22,26.17-6.51l.07,13.22c-6.16,2.45-13.65,5.6-26.88,5.6-30.09,0-49.61-21.55-49.61-53.81C323.78,928.88,346.87,909.21,373,909.21Z"/>
      <path class="cls-2" d="M446.66,922.37H413.42v-12h82.37v12H462.41v94.47H446.66Z"/>
      <path class="cls-2" d="M507.19,962.82c.7-35.55,22.53-53.61,49.55-53.61,28.27,0,46.88,21.35,46.25,54.38-.69,35.48-21.13,53.81-48.35,54.37C525.18,1018.59,506.56,995.08,507.19,962.82Zm80,0c0-22.33-10.5-41.71-30.93-41.71-18,0-33.31,13.5-33.31,42.69,0,22.11,10.91,42.2,32.19,42.2C574.51,1006,587.18,991,587.18,962.82Z"/>
      <path class="cls-2" d="M623.56,910.33h6.79c6.93,0,16.87-1.12,27.15-1.12,21.7,0,36.26,8.68,36.26,29.95,0,15.68-7.28,25.34-19.25,29.54,9.87,6.85,15.54,27.43,22.6,40.3,1.4,2.66,2.8,5.25,4.27,7.84h-17.7c-1.26-1.82-1.75-3.36-3.85-7.84-5.74-12.45-10.92-34.08-22.12-37.65-4.12.14-9.72.14-18.54.14v45.35H623.56Zm32.06,50.53c13.78,0,22.18-6.16,22.18-20.93,0-13.22-6.23-19.24-22.6-19.24a85.11,85.11,0,0,0-16,1.26v38.49C642.25,960.79,651.84,960.86,655.62,960.86Z"/>
      <path class="cls-2" d="M742.25,975.34l-35.06-65h16.65l23.66,46.19,3,7.35,2.52-7.35,23.16-46.19h16.37l-34.5,65v41.5H742.25Z"/>
    </g>
  </g>
</svg>
