 <svg class="logo" xmlns="http://www.w3.org/2000/svg" viewBox="0 0 1963.42 680.31">
  <defs>
    <style>
      .cls-1, .cls-3 {
        fill: #fff;
      }

      .cls-1, .cls-2 {
        isolation: isolate;
      }
    </style>
  </defs>
  <g>
    <path class="cls-1" d="M504.34,483.72,469.1,519,447.34,424.7l-.19-.82-1.66-7.17c22.47-4.19,37.6-14.69,37.62-23.88v0h0V337.61c0-17-25-34.24-62.47-45.48h0V267.41h-6.11V214.14c0-.8,0-1.57.09-2.32,0-.37.05-.75.1-1.1s.06-.57.11-.85.1-.64.15-1,.11-.56.17-.81.17-.74.27-1.07a5.79,5.79,0,0,1,.19-.63.64.64,0,0,1,0-.07,9.54,9.54,0,0,1,1-2.19,1.45,1.45,0,0,1,.17-.26,1.5,1.5,0,0,1,.19-.25,2.22,2.22,0,0,1,1.68-1,2.5,2.5,0,0,1,2,1.37h0V190.13h7a8.59,8.59,0,0,0,3-.54h0c.26-.09.52-.2.77-.31a5.52,5.52,0,0,0,.75-.42,9.13,9.13,0,0,0,1-.71h0a8.22,8.22,0,0,0,.61-.57,8.57,8.57,0,0,0,2.56-6.15,8.73,8.73,0,0,0-8.73-8.74H421v0c0-.51,0-1,0-1.52a40.6,40.6,0,0,0-.94-7.47,41.64,41.64,0,0,0-1.19-4.34,48.25,48.25,0,0,0-2.27-5.6c-.22-.47-.44-.91-.69-1.36-.58-1.13-1.22-2.25-1.91-3.35s-1.42-2.18-2.19-3.23c-.63-.85-1.26-1.68-1.95-2.5s-1.39-1.66-2.11-2.44-1.49-1.6-2.28-2.36A72.63,72.63,0,0,0,391.86,128c-.19-.12-.39-.24-.6-.35-.05,0-.12-.07-.18-.12-.25-.15-.49-.3-.75-.44a100.82,100.82,0,0,0-31.57-11.45h0a115.73,115.73,0,0,0-17.45-1.94c-.57,0-1.13,0-1.7-.06-.95,0-1.89,0-2.84,0-1.91,0-3.8,0-5.67.14-2.8.13-5.54.35-8.25.67l-1.78.22c-.44,0-.88.12-1.32.19-.69.09-1.35.19-2,.3-1.18.19-2.34.4-3.48.62-35.6,6.91-61.72,29.75-61.73,56.9v0h4.31c0-12.6,5.63-24.28,15.24-33.87a73.48,73.48,0,0,1,15-11.45q2.13-1.25,4.38-2.4a91.58,91.58,0,0,1,9.43-4.19h0q1.78-.68,3.63-1.29a107.81,107.81,0,0,1,14.36-3.73c1.15-.22,2.31-.43,3.49-.62.67-.11,1.34-.21,2-.3.44-.07.89-.14,1.33-.19l1.77-.21c2.7-.3,4.56-.62,7.35-.74l.67,0h.91c-5.25,0-9.5,26.46-9.5,59H326c-1.53,0-2.79,3.93-2.79,8.73,0,4.65,1.18,8.45,2.66,8.7l.15,0h.64l2.18,131.62v.06l-1.75,180.74h0c-15.45-3-30.74-6-45.64-9.3h0l21-172.51.67-53.36H292.9V214.11c0-6,4.84-10.85,11-11.45l.15-12.54H304c-3.08,0-5.57-3.91-5.57-8.72s2.49-8.73,5.57-8.73h.32c0-31.73,13.61-57.63,30.69-59h-.08l-1.43.11-.48,0c-1.11.09-9.69,1.54-13,2.36l-1.62.43-1.62.46c-1.61.46-3.19,1-4.75,1.54-1,.35-1.93.71-2.87,1.09-.58.22-1.14.47-1.7.71-.94.4-1.87.83-2.77,1.27a4.14,4.14,0,0,0-.43.2l-1.19.59c-.48.24-1,.49-1.42.76s-.94.5-1.41.75a70.62,70.62,0,0,0-6.49,4.12l-1.26.92c-.41.29-.82.61-1.22.93-.81.63-1.61,1.28-2.38,1.94-.39.32-.78.66-1.14,1s-.75.68-1.12,1-.74.69-1.09,1.06c-.62.59-1.22,1.21-1.81,1.83a59.59,59.59,0,0,0-6.6,8.47c-.25.38-.49.76-.71,1.15a1.53,1.53,0,0,1-.14.21l-.69,1.19a52.74,52.74,0,0,0-4.6,10.72c-.39,1.3-.73,2.64-1,4a49.25,49.25,0,0,0-1.06,10.13h-1.54a4.62,4.62,0,0,0-1,.1,1.34,1.34,0,0,0-.27.07,5,5,0,0,0-1.36.55l-.41.26a5.6,5.6,0,0,0-.82.67l-.35.34a7,7,0,0,0-.52.65c-.13.17-.25.35-.37.54a7.26,7.26,0,0,0-.38.67,6.76,6.76,0,0,0-.38.86,2.64,2.64,0,0,0-.17.47,10.28,10.28,0,0,0-.51,2.38c0,.15,0,.29-.05.45s0,.47,0,.72,0,.49,0,.72,0,.3.05.45A9.55,9.55,0,0,0,261,184c.06.26.13.51.21.76a.37.37,0,0,0,0,.11,4,4,0,0,0,.21.58c0,.1.07.18.11.28a9.38,9.38,0,0,0,.64,1.22,0,0,0,0,0,0,0,6,6,0,0,0,.41.58,7.18,7.18,0,0,0,1.69,1.62,3,3,0,0,0,.33.21l0,0a.05.05,0,0,0,0,0,4.78,4.78,0,0,0,.45.23l.11.05.33.12a5,5,0,0,0,1.68.29h-.27v13.75c3.79.59,6.74,5.49,6.74,11.44v53.26h-6.74v55.6l-18.91,105.3-9.34,52h0l-.22,1.23-4.43-1.24c-3.79-1.09-7.54-2.2-11.24-3.37-1.44-.44-2.86-.89-4.28-1.34l3.14-16.05,10.35-44.8,2.64-11.48,1.36-5.91L249.2,342,256.8,309V190.12h-8.29a8.74,8.74,0,0,1-4.89-1.49,7.8,7.8,0,0,1-1.29-1.07,8.65,8.65,0,0,1-2.56-6.15,8.75,8.75,0,0,1,8.73-8.74h-4.65a8.75,8.75,0,0,0-8.73,8.74,8.65,8.65,0,0,0,2.56,6.15,7.8,7.8,0,0,0,1.29,1.07,8.69,8.69,0,0,0,4.88,1.5h8.3V309L244.55,342l-13.06,56.59h0c-32.65,13.36-61.54,31.2-62,44.86v.09a1,1,0,0,0,0,.25v46.63L25.81,346.73h0L331.07,41.46v41h0v31.22c1.79-.1,3.61-.14,5.44-.14,1,0,2.05,0,3.07,0,.57,0,1.13,0,1.7.06V76.45L346,75.38l19.77-4.2L513,218.45l.81-25L387.05,66.65l88.38-18.78L341.28,19.36V15.19a8.46,8.46,0,1,0-10.21,0v.48L0,346.74,333.57,680.31,417.89,596l13.5-13.5.71.16,5.55-6.42,16-16,49.85-49.84ZM326.46,571.31l-.31,31.41-.42,43.93-.11-.11-56-56,3.61-29.67c17.51,4,35.28,7.25,53.21,10.42Zm49-288.8h0q-5.57-.76-11.3-1.34c-7.79-.79-15.44-1.3-22.89-1.55h0v-55.1c0-15.14,11.2-27.45,25-27.45A23.76,23.76,0,0,1,383,204.15l.46-14h-.3c2.69,0,4.87-3.91,4.87-8.72s-2.18-8.73-4.87-8.73h.06c0-32.22-20.75-58.42-46.5-59h.92c.56,0,1.11,0,1.67.05l.54,0h.39c35.89,2,64.28,27.62,64.28,58.94h.79c4.14,0,7.5,3.9,7.5,8.73s-3.36,8.72-7.5,8.72h-.14l.72,98.06h0c-1-.23-1.89-.45-2.85-.66s-2.18-.5-3.27-.74l-1.93-.41c-.88-.19-1.77-.37-2.66-.54-1.29-.27-2.59-.51-3.9-.76h0l-3.11-.57c-2.55-.45-5.14-.88-7.77-1.26C378.76,283,377.11,282.73,375.46,282.51Zm77.07,247.17c-16.33-4.52-33-8.47-49.93-12.12h0L383.13,353.41q5.22,1.21,10,2.56a169.85,169.85,0,0,1,23.4,8.17h0l36,165.53Z"/>
    <g class="cls-2">
      <path class="cls-3" d="M539.28,357.73V78.92H661.61a141.14,141.14,0,0,1,29.27,3.19,66.31,66.31,0,0,1,27.58,13.14q12.57,9.94,20.26,30t7.69,53.47q0,33.76-7.5,54.22t-19.52,30.77a63.64,63.64,0,0,1-26.07,13.88,112,112,0,0,1-27.58,3.57q-7.14,0-14.83-.75t-15-2.07q-7.3-1.31-13.51-2.62c-4.12-.88-7.56-1.56-10.31-2.07v84.06Zm72.8-141.84h42q7.5,0,11.82-4.13t6-12.2a100.45,100.45,0,0,0,1.69-20.07A78.72,78.72,0,0,0,671.55,160q-2.07-7.87-6.19-11.82t-11.26-3.94h-42Z"/>
      <path class="cls-3" d="M849.23,357.73q-25.15,0-41.28-7.51a47.26,47.26,0,0,1-23.64-23.64q-7.51-16.12-7.5-41.27V78.92H849.6v194a25.88,25.88,0,0,0,2.07,10.88,12.86,12.86,0,0,0,6.56,6.57,25.92,25.92,0,0,0,10.88,2.06h81.06v65.3Z"/>
      <path class="cls-3" d="M1081.87,359.6a240.09,240.09,0,0,1-43.34-3.75A99.39,99.39,0,0,1,1002.32,342q-15.77-10.14-24.58-28.52t-8.82-47.66V78.92h72.8v186.5q0,9.76,4.69,16.13t13.7,9.57q9,3.19,21.76,3.19t21.77-3.19q9-3.18,13.69-9.57t4.69-16.13V78.92h72.8V265.79q0,29.28-8.82,47.66T1161.42,342a99.28,99.28,0,0,1-36,13.88A239.27,239.27,0,0,1,1081.87,359.6Z"/>
      <path class="cls-3" d="M1308.89,359.6q-25.89,0-42.22-11.07t-25.33-30.39q-9-19.32-12.57-44.84a393.13,393.13,0,0,1-3.56-54.41,362.52,362.52,0,0,1,4.31-58.54q4.32-26.26,15.76-45t32.84-28.89q21.39-10.14,55.53-10.13A370.47,370.47,0,0,1,1371.74,78a254.17,254.17,0,0,1,29.83,4.88q13.88,3.19,28.89,7.32v56.66q-8.25-1.5-21-2.63t-28.52-1.87q-15.75-.75-33.39-.75-21.78,0-32.27,6.56t-13.89,23.46q-3.37,16.88-3.38,47.28,0,23.27,1.88,37.71t6.19,22.33q4.32,7.88,11.07,10.88a39.54,39.54,0,0,0,16.14,3A207.74,207.74,0,0,0,1358,291.5q10.89-1.32,16.51-2.44V253H1335.9V195.25q8.25-1.12,19.7-1.88t23.64-1.31q12.19-.57,22.33-.56,13.52,0,23.83.18t18.95.57V357.73h-54.79l-9.75-18.39q-9,6-28.15,13.13T1308.89,359.6Z"/>
      <path class="cls-3" d="M1472.49,247.8V190h117.82V247.8Z"/>
      <path class="cls-3" d="M1618.45,357.73V78.92h72.8V357.73Z"/>
      <path class="cls-3" d="M1732.52,357.73V78.92h57.79l97.93,155.35V78.92H1961V357.73h-57.79l-97.93-155.35V357.73Z"/>
    </g>
    <g class="cls-2">
      <path class="cls-3" d="M543,402.29h14.08c12.32,0,29.3-2,45.27-2,61.49,0,90.79,34.08,90.79,92.3,0,65.26-36,104.25-93.81,103.11-12.7-.25-31.94-2-45.65-2H543ZM603.77,575c35.09-.76,60.24-23.27,60.24-78.22,0-56.59-23.14-76.2-68.16-76.2a132.28,132.28,0,0,0-24.65,2v150C579.63,574.44,593,575.07,603.77,575Z"/>
      <path class="cls-3" d="M729.76,402.29h28.42V593.68H729.76Z"/>
      <path class="cls-3" d="M808.6,402.29h12.2c12.45,0,30.31-2,48.79-2,39,0,65.14,15.6,65.14,53.82,0,28.17-13.08,45.52-34.58,53.07,17.73,12.32,27.91,49.29,40.61,72.43,2.52,4.78,5,9.43,7.67,14.08H916.62c-2.26-3.27-3.14-6-6.92-14.08C899.39,557.22,890.09,518.36,870,512c-7.42.25-17.48.25-33.33.25v81.48h-28Zm57.6,90.79c24.77,0,39.86-11.06,39.86-37.59,0-23.77-11.19-34.58-40.62-34.58-10.44,0-20.75.62-28.8,2.26v69.16C842.18,493,859.41,493.08,866.2,493.08Z"/>
      <path class="cls-3" d="M980.49,402.29h110.16v21.63h-82.12v60.36h60.24v21.63h-60.24v65.77h91.3v22H980.49Z"/>
      <path class="cls-3" d="M1209.6,400.28c29.05,0,43.38,5.54,50.17,7.17l-4,24.9c-3.65-1.89-15.47-9.31-44.27-9.31-38.85,0-62.62,28.8-62.62,74.07,0,44.76,23.52,76.45,62.5,76.45,19.61,0,40.36-5.78,47-11.69l.12,23.76c-11.06,4.41-24.52,10.06-48.28,10.06-54.07,0-89.16-38.73-89.16-96.7C1121.07,435.62,1162.57,400.28,1209.6,400.28Z"/>
      <path class="cls-3" d="M1341.88,423.92h-59.73V402.29h148v21.63h-60V593.68h-28.29Z"/>
      <path class="cls-3" d="M1450.64,496.61c1.26-63.88,40.49-96.33,89-96.33,50.8,0,84.25,38.36,83.12,97.71-1.26,63.75-38,96.7-86.89,97.7C1483,596.83,1449.51,554.58,1450.64,496.61Zm143.73,0c0-40.12-18.86-74.95-55.58-74.95-32.32,0-59.86,24.27-59.86,76.71,0,39.73,19.62,75.82,57.85,75.82C1571.61,574.19,1594.37,547.16,1594.37,496.61Z"/>
      <path class="cls-3" d="M1659.75,402.29H1672c12.45,0,30.3-2,48.79-2,39,0,65.13,15.6,65.13,53.82,0,28.17-13.07,45.52-34.58,53.07,17.73,12.32,27.92,49.29,40.62,72.43,2.52,4.78,5,9.43,7.67,14.08h-31.81c-2.27-3.27-3.15-6-6.92-14.08-10.31-22.38-19.62-61.24-39.74-67.65-7.41.25-17.47.25-33.32.25v81.48h-28Zm57.59,90.79c24.77,0,39.86-11.06,39.86-37.59,0-23.77-11.19-34.58-40.61-34.58-10.44,0-20.75.62-28.8,2.26v69.16C1693.33,493,1710.55,493.08,1717.34,493.08Z"/>
      <path class="cls-3" d="M1873,519.11l-63-116.82h29.93l42.5,83,5.41,13.2,4.53-13.2,41.62-83h29.42l-62,116.82v74.57H1873Z"/>
    </g>
  </g>
</svg>
